<?xml version="1.0" encoding="UTF-8" standalone="no"?>
<!-- Created with Inkscape (http://www.inkscape.org/) -->

<svg
   xmlns:osb="http://www.openswatchbook.org/uri/2009/osb"
   xmlns:dc="http://purl.org/dc/elements/1.1/"
   xmlns:cc="http://creativecommons.org/ns#"
   xmlns:rdf="http://www.w3.org/1999/02/22-rdf-syntax-ns#"
   xmlns:svg="http://www.w3.org/2000/svg"
   xmlns="http://www.w3.org/2000/svg"
   xmlns:xlink="http://www.w3.org/1999/xlink"
   xmlns:sodipodi="http://sodipodi.sourceforge.net/DTD/sodipodi-0.dtd"
   xmlns:inkscape="http://www.inkscape.org/namespaces/inkscape"
   width="744.09448819"
   height="1052.3622047"
   id="svg2"
   version="1.1"
   inkscape:version="0.48.2 r9819"
   sodipodi:docname="gotlambda.svg">
  <defs
     id="defs4">
    <linearGradient
       inkscape:collect="always"
       id="linearGradient5473">
      <stop
         style="stop-color:#20e7ce;stop-opacity:1;"
         offset="0"
         id="stop5475" />
      <stop
         style="stop-color:#20639e;stop-opacity:0;"
         offset="1"
         id="stop5477" />
    </linearGradient>
    <linearGradient
       inkscape:collect="always"
       id="linearGradient5411">
      <stop
         style="stop-color:#000000;stop-opacity:1;"
         offset="0"
         id="stop5413" />
      <stop
         style="stop-color:#000000;stop-opacity:0.46218488;"
         offset="1"
         id="stop5415" />
    </linearGradient>
    <linearGradient
       id="linearGradient5356">
      <stop
         style="stop-color:#000000;stop-opacity:0.68907565;"
         offset="0"
         id="stop5358" />
      <stop
         style="stop-color:#000000;stop-opacity:1;"
         offset="1"
         id="stop5360" />
    </linearGradient>
    <linearGradient
       id="linearGradient5350"
       osb:paint="solid">
      <stop
         style="stop-color:#000000;stop-opacity:1;"
         offset="0"
         id="stop5352" />
    </linearGradient>
    <linearGradient
       id="linearGradient5312">
      <stop
         style="stop-color:#000000;stop-opacity:1;"
         offset="0"
         id="stop5314" />
      <stop
         style="stop-color:#000000;stop-opacity:0.67226893;"
         offset="1"
         id="stop5316" />
    </linearGradient>
    <linearGradient
       inkscape:collect="always"
       id="linearGradient5302"
       osb:paint="gradient">
      <stop
         style="stop-color:#1a1a1a;stop-opacity:1;"
         offset="0"
         id="stop5304" />
      <stop
         style="stop-color:#1a1a1a;stop-opacity:0;"
         offset="1"
         id="stop5306" />
    </linearGradient>
    <radialGradient
       inkscape:collect="always"
       xlink:href="#linearGradient5312"
       id="radialGradient5336"
       cx="357.51352"
       cy="192.52203"
       fx="357.51352"
       fy="192.52203"
       r="107.34334"
       gradientTransform="matrix(0.95702482,0,0,1.2355619,-158.42798,-722.22863)"
       gradientUnits="userSpaceOnUse" />
    <radialGradient
       inkscape:collect="always"
       xlink:href="#linearGradient5356"
       id="radialGradient5368"
       cx="230.99802"
       cy="160.00626"
       fx="230.99802"
       fy="160.00626"
       r="129.20686"
       gradientTransform="matrix(0.90441317,0,0,0.3262956,-356.77628,267.7794)"
       gradientUnits="userSpaceOnUse" />
    <radialGradient
       inkscape:collect="always"
       xlink:href="#linearGradient5411"
       id="radialGradient5421"
       cx="255.71431"
       cy="-159.50504"
       fx="255.71431"
       fy="-159.50504"
       r="124.5"
       gradientTransform="matrix(1,0,0,0.87951807,0,-19.217474)"
       gradientUnits="userSpaceOnUse" />
    <radialGradient
       inkscape:collect="always"
       xlink:href="#linearGradient5473"
       id="radialGradient5481"
       cx="284.08734"
       cy="-335.2193"
       fx="284.08734"
       fy="-335.2193"
       r="124.5"
       gradientTransform="matrix(1,0,0,0.87951807,0,-40.387867)"
       gradientUnits="userSpaceOnUse" />
    <radialGradient
       inkscape:collect="always"
       xlink:href="#linearGradient5411"
       id="radialGradient5485"
       gradientUnits="userSpaceOnUse"
       gradientTransform="matrix(1,0,0,0.87951807,0,-19.217474)"
       cx="255.71431"
       cy="-159.50504"
       fx="255.71431"
       fy="-159.50504"
       r="124.5" />
    <radialGradient
       inkscape:collect="always"
       xlink:href="#linearGradient5356"
       id="radialGradient5523"
       gradientUnits="userSpaceOnUse"
       gradientTransform="matrix(0.91166274,0,0,0.3262956,-361.33868,267.7794)"
       cx="230.99802"
       cy="160.00626"
       fx="230.99802"
       fy="160.00626"
       r="129.20686" />
    <radialGradient
       inkscape:collect="always"
       xlink:href="#linearGradient5356"
       id="radialGradient5525"
       gradientUnits="userSpaceOnUse"
       gradientTransform="matrix(0.90441317,0,0,0.3262956,-356.77628,267.7794)"
       cx="230.99802"
       cy="160.00626"
       fx="230.99802"
       fy="160.00626"
       r="129.20686" />
    <radialGradient
       inkscape:collect="always"
       xlink:href="#linearGradient5356"
       id="radialGradient5556"
       gradientUnits="userSpaceOnUse"
       gradientTransform="matrix(0.91166274,0,0,0.3262956,-361.33868,267.7794)"
       cx="230.99802"
       cy="160.00626"
       fx="230.99802"
       fy="160.00626"
       r="129.20686" />
    <radialGradient
       inkscape:collect="always"
       xlink:href="#linearGradient5356"
       id="radialGradient5558"
       gradientUnits="userSpaceOnUse"
       gradientTransform="matrix(0.90441317,0,0,0.3262956,-356.77628,267.7794)"
       cx="230.99802"
       cy="160.00626"
       fx="230.99802"
       fy="160.00626"
       r="129.20686" />
    <radialGradient
       inkscape:collect="always"
       xlink:href="#linearGradient5356"
       id="radialGradient5576"
       gradientUnits="userSpaceOnUse"
       gradientTransform="matrix(0.91166274,0,0,0.3262956,-361.33868,267.7794)"
       cx="230.99802"
       cy="160.00626"
       fx="230.99802"
       fy="160.00626"
       r="129.20686" />
    <radialGradient
       inkscape:collect="always"
       xlink:href="#linearGradient5356"
       id="radialGradient5578"
       gradientUnits="userSpaceOnUse"
       gradientTransform="matrix(0.90441317,0,0,0.3262956,-356.77628,267.7794)"
       cx="230.99802"
       cy="160.00626"
       fx="230.99802"
       fy="160.00626"
       r="129.20686" />
  </defs>
  <sodipodi:namedview
     id="base"
     pagecolor="#ffffff"
     bordercolor="#666666"
     borderopacity="1.0"
     inkscape:pageopacity="0.0"
     inkscape:pageshadow="2"
     inkscape:zoom="0.7"
     inkscape:cx="234.71913"
     inkscape:cy="752.74014"
     inkscape:document-units="px"
     inkscape:current-layer="layer1"
     showgrid="false"
     inkscape:window-width="1241"
     inkscape:window-height="739"
     inkscape:window-x="30"
     inkscape:window-y="0"
     inkscape:window-maximized="0" />
  <metadata
     id="metadata7">
    <rdf:RDF>
      <cc:Work
         rdf:about="">
        <dc:format>image/svg+xml</dc:format>
        <dc:type
           rdf:resource="http://purl.org/dc/dcmitype/StillImage" />
        <dc:title></dc:title>
      </cc:Work>
    </rdf:RDF>
  </metadata>
  <g
     inkscape:label="Layer 1"
     inkscape:groupmode="layer"
     id="layer1">
    <g
       id="g5562"
       style="opacity:0.25229361"
       transform="matrix(-1.0973706,-0.29403958,0.29403958,-1.0973706,536.51261,758.53674)">
      <path
         transform="matrix(1.6923077,0,0,1.6923077,0.05583835,-55.620675)"
         d="m 272.85715,201.6479 c 0,35.89851 -29.10149,65 -65,65 -35.89851,0 -65,-29.10149 -65,-65 0,-35.89851 29.10149,-65 65,-65 35.89851,0 65,29.10149 65,65 z"
         sodipodi:ry="65"
         sodipodi:rx="65"
         sodipodi:cy="201.6479"
         sodipodi:cx="207.85715"
         id="path5546"
         style="fill:#20639e;fill-opacity:1;fill-rule:evenodd"
         sodipodi:type="arc" />
      <path
         transform="matrix(1.0466704,0,0,1.6935484,-27.796439,-199.01604)"
         d="m 410.45444,300.93362 c 0,24.45833 -32.08139,44.28572 -71.65579,44.28572 -39.57441,0 -71.6558,-19.82739 -71.6558,-44.28572 0,-24.45832 32.08139,-44.28571 71.6558,-44.28571 39.5744,0 71.65579,19.82739 71.65579,44.28571 z"
         sodipodi:ry="44.285713"
         sodipodi:rx="71.655792"
         sodipodi:cy="300.93362"
         sodipodi:cx="338.79865"
         id="path5560"
         style="fill:#05cb1f;fill-opacity:1;fill-rule:evenodd"
         sodipodi:type="arc" />
    </g>
    <g
       id="g5550"
       transform="translate(-104.91389,79.073549)"
       style="fill:#1a1a1a">
      <g
         id="text3068"
         style="font-size:111.33839417px;font-style:normal;font-variant:normal;font-weight:normal;font-stretch:normal;line-height:125%;letter-spacing:0px;word-spacing:0px;fill:#1a1a1a;fill-opacity:1;stroke:none;font-family:Sans;-inkscape-font-specification:Sans"
         transform="matrix(0,-0.93384091,1.0708462,0,-88,121.8008)">
        <path
           inkscape:connector-curvature="0"
           d="m -32.953334,289.08255 -29.153718,0 0,71.38052 -10.850444,0 0,-71.38052 -29.153714,0 0,-9.56814 69.157876,0 0,9.56814 m -83.077136,-0.27182 c 3.32447,3.62436 5.86354,8.06412 7.61723,13.31929 1.79005,5.25528 2.68513,11.21724 2.68521,17.8859 -8e-5,6.66874 -0.91342,12.64883 -2.74002,17.94027 -1.79021,5.25525 -4.31102,9.64064 -7.56242,13.1562 -3.36115,3.66054 -7.3433,6.41501 -11.94645,8.26339 -4.56675,1.8484 -9.79103,2.77259 -15.67286,2.77259 -5.7358,0 -10.96009,-0.94232 -15.67287,-2.82695 -4.67631,-1.88463 -8.65846,-4.62097 -11.94645,-8.20903 -3.28803,-3.58804 -5.8271,-7.99156 -7.61722,-13.21056 -1.75362,-5.21896 -2.63042,-11.18092 -2.63042,-17.88591 0,-6.59617 0.8768,-12.50377 2.63042,-17.72281 1.75359,-5.25516 4.31093,-9.74929 7.67202,-13.48238 3.21493,-3.55174 7.19707,-6.26996 11.94645,-8.15467 4.78585,-1.88455 9.99187,-2.82687 15.61807,-2.82695 5.8453,8e-5 11.08785,0.96052 15.72765,2.88132 4.67623,1.88471 8.64011,4.58481 11.89166,8.1003 m -0.98641,31.20519 c -7e-5,-10.51041 -2.37474,-18.6107 -7.12403,-24.30091 -4.7494,-5.72631 -11.23409,-8.58951 -19.45408,-8.58958 -8.29313,7e-5 -14.81435,2.86327 -19.56368,8.58958 -4.71283,5.69021 -7.06924,13.7905 -7.06922,24.30091 -2e-5,10.61922 2.41118,18.75576 7.23363,24.40964 4.82239,5.61767 11.28881,8.4265 19.39927,8.42649 8.11039,10e-6 14.55854,-2.80882 19.34448,-8.42649 4.82236,-5.65388 7.23356,-13.79042 7.23363,-24.40964 m -78.80272,34.46706 c -4.45716,2.02961 -9.33438,3.80552 -14.63166,5.32772 -5.26089,1.48596 -10.3573,2.22894 -15.28926,2.22894 -6.35687,0 -12.18396,-0.86983 -17.48127,-2.60949 -5.29739,-1.73966 -9.80927,-4.34915 -13.53566,-7.82848 -3.76296,-3.51556 -6.66737,-7.90095 -8.71324,-13.1562 -2.04588,-5.29144 -3.06881,-11.47086 -3.06881,-18.53828 0,-12.93868 3.79947,-23.14107 11.39845,-30.60718 7.63547,-7.50222 18.1023,-11.25336 31.40053,-11.25344 4.63969,8e-5 9.37078,0.56184 14.19325,1.6853 4.85889,1.08736 10.08318,2.95387 15.67287,5.59953 l 0,12.77565 -0.98641,0 c -1.13261,-0.86977 -2.77662,-2.01142 -4.93202,-3.42496 -2.15554,-1.41341 -4.27448,-2.5913 -6.35682,-3.53369 -2.52087,-1.12346 -5.38875,-2.04766 -8.60363,-2.77259 -3.17847,-0.76103 -6.79528,-1.14158 -10.85045,-1.14165 -9.13341,7e-5 -16.36703,2.91763 -21.70089,8.75268 -5.29738,5.79893 -7.94605,13.66365 -7.94603,23.59417 -2e-5,10.47424 2.77652,18.6289 8.32964,24.464 5.55306,5.79889 13.11547,8.69832 22.68729,8.69831 3.50716,1e-5 6.9961,-0.3443 10.46684,-1.03292 3.50715,-0.68861 6.57596,-1.57656 9.20644,-2.66386 l 0,-19.84303 -21.86529,0 0,-9.45941 32.60613,0 0,34.73888"
           style="fill:#1a1a1a;font-family:Sans;-inkscape-font-specification:Sans"
           id="path5520" />
      </g>
      <text
         transform="scale(0.99919965,1.000801)"
         sodipodi:linespacing="125%"
         id="text5511"
         y="368.78226"
         x="288.16199"
         style="font-size:317.66464233px;font-style:normal;font-variant:normal;font-weight:bold;font-stretch:normal;line-height:125%;letter-spacing:0px;word-spacing:0px;fill:#1a1a1a;fill-opacity:1;stroke:none;font-family:Raanana;-inkscape-font-specification:Raanana Bold"
         xml:space="preserve"><tspan
           style="font-style:normal;font-variant:normal;font-weight:bold;font-stretch:normal;fill:#1a1a1a;font-family:Marion;-inkscape-font-specification:Marion Bold"
           y="368.78226"
           x="288.16199"
           id="tspan5513"
           sodipodi:role="line">λ</tspan></text>
    </g>
    <flowRoot
       xml:space="preserve"
       id="flowRoot3072"
       style="fill:black;stroke:none;stroke-opacity:1;stroke-width:1px;stroke-linejoin:miter;stroke-linecap:butt;fill-opacity:1;font-family:Sans;font-style:normal;font-weight:normal;font-size:40px;line-height:125%;letter-spacing:0px;word-spacing:0px"><flowRegion
         id="flowRegion3074"><rect
           id="rect3076"
           width="51.42857"
           height="98.571426"
           x="200"
           y="315.21933" /></flowRegion><flowPara
         id="flowPara3078"></flowPara></flowRoot>  </g>
</svg>
